{
	"accessors" : 
	[
		{
			"bufferView" : 2,
			"byteOffset" : 0,
			"componentType" : 5126,
			"count" : 19986,
			"max" : 
			[
				1,
				1,
				1,
				1
			],
			"min" : 
			[
				0,
				0.1219857111573219,
				0,
				1
			],
			"name" : "accessor_color_m0-PolyPaper21_-41240",
			"type" : "VEC4"
		},
		{
			"bufferView" : 2,
			"byteOffset" : 319776,
			"componentType" : 5126,
			"count" : 3182,
			"max" : 
			[
				1,
				1,
				1,
				1
			],
			"min" : 
			[
				1,
				1,
				1,
				1
			],
			"name" : "accessor_color_m1-PolyGem25_-41246",
			"type" : "VEC4"
		},
		{
			"bufferView" : 2,
			"byteOffset" : 370688,
			"componentType" : 5126,
			"count" : 1422,
			"max" : 
			[
				1,
				1,
				1,
				1
			],
			"min" : 
			[
				0.729918897151947,
				0.3250369727611542,
				0.05459228157997131,
				1
			],
			"name" : "accessor_color_m2-PolyPaper19_-41252",
			"type" : "VEC4"
		},
		{
			"bufferView" : 0,
			"byteOffset" : 0,
			"componentType" : 5123,
			"count" : 31008,
			"max" : 
			[
				19985
			],
			"min" : 
			[
				0
			],
			"name" : "accessor_indices_0_m0-PolyPaper21_-41240",
			"type" : "SCALAR"
		},
		{
			"bufferView" : 0,
			"byteOffset" : 62016,
			"componentType" : 5123,
			"count" : 4674,
			"max" : 
			[
				3181
			],
			"min" : 
			[
				0
			],
			"name" : "accessor_indices_0_m1-PolyGem25_-41246",
			"type" : "SCALAR"
		},
		{
			"bufferView" : 0,
			"byteOffset" : 71364,
			"componentType" : 5123,
			"count" : 2076,
			"max" : 
			[
				1421
			],
			"min" : 
			[
				0
			],
			"name" : "accessor_indices_0_m2-PolyPaper19_-41252",
			"type" : "SCALAR"
		},
		{
			"bufferView" : 1,
			"byteOffset" : 239832,
			"componentType" : 5126,
			"count" : 19986,
			"max" : 
			[
				0.9999619,
				0.9999285999999999,
				0.9999562
			],
			"min" : 
			[
				-0.9999426,
				-0.999891,
				-0.9999325
			],
			"name" : "accessor_normal_m0-PolyPaper21_-41240",
			"type" : "VEC3"
		},
		{
			"bufferView" : 1,
			"byteOffset" : 517848,
			"componentType" : 5126,
			"count" : 3182,
			"max" : 
			[
				0.9944547,
				0.9963624,
				0.9968518
			],
			"min" : 
			[
				-0.994455,
				-0.9963624,
				-0.9968517
			],
			"name" : "accessor_normal_m1-PolyGem25_-41246",
			"type" : "VEC3"
		},
		{
			"bufferView" : 1,
			"byteOffset" : 573096,
			"componentType" : 5126,
			"count" : 1422,
			"max" : 
			[
				0.9997466,
				0.9980008,
				0.9621564
			],
			"min" : 
			[
				-0.9997471999999999,
				-0.9975592,
				-0.964604
			],
			"name" : "accessor_normal_m2-PolyPaper19_-41252",
			"type" : "VEC3"
		},
		{
			"bufferView" : 1,
			"byteOffset" : 0,
			"componentType" : 5126,
			"count" : 19986,
			"max" : 
			[
				0.3516406,
				1.62149,
				-0.2250937
			],
			"min" : 
			[
				0.1771911,
				1.474083,
				-0.39095
			],
			"name" : "accessor_position_m0-PolyPaper21_-41240",
			"type" : "VEC3"
		},
		{
			"bufferView" : 1,
			"byteOffset" : 479664,
			"componentType" : 5126,
			"count" : 3182,
			"max" : 
			[
				0.3015423,
				1.580435,
				-0.2413079
			],
			"min" : 
			[
				0.246948,
				1.510271,
				-0.3123468
			],
			"name" : "accessor_position_m1-PolyGem25_-41246",
			"type" : "VEC3"
		},
		{
			"bufferView" : 1,
			"byteOffset" : 556032,
			"componentType" : 5126,
			"count" : 1422,
			"max" : 
			[
				0.2617157,
				1.626421,
				-0.2380798
			],
			"min" : 
			[
				0.1776243,
				1.487202,
				-0.3917525
			],
			"name" : "accessor_position_m2-PolyPaper19_-41252",
			"type" : "VEC3"
		}
	],
	"asset" : 
	{
		"copyright" : "Unknown",
		"generator" : "glTF 1-to-2 Upgrader for Google Blocks",
		"version" : "2.0"
	},
	"bufferViews" : 
	[
		{
			"buffer" : 0,
			"byteLength" : 75516,
			"byteOffset" : 0,
			"name" : "ushortBufferView",
			"target" : 34963
		},
		{
			"buffer" : 0,
			"byteLength" : 590160,
			"byteOffset" : 75516,
			"byteStride" : 12,
			"name" : "vec3BufferView",
			"target" : 34962
		},
		{
			"buffer" : 0,
			"byteLength" : 393440,
			"byteOffset" : 665676,
			"byteStride" : 16,
			"name" : "vec4BufferView",
			"target" : 34962
		}
	],
	"buffers" : 
	[
		{
			"byteLength" : 1059116,
			"name" : "Study_Table",
			"uri" : "Study_Table.bin"
		}
	],
	"materials" : 
	[
		{
			"alphaMode" : "OPAQUE",
			"doubleSided" : false,
			"name" : "BlocksPaper",
			"pbrMetallicRoughness" : 
			{
				"baseColorFactor" : 
				[
					1,
					1,
					1,
					1
				],
				"metallicFactor" : 0,
				"roughnessFactor" : 0.6
			}
		},
		{
			"alphaMode" : "BLEND",
			"doubleSided" : false,
			"name" : "BlocksGlass",
			"pbrMetallicRoughness" : 
			{
				"baseColorFactor" : 
				[
					0.2,
					0.2,
					1,
					0.3
				],
				"metallicFactor" : 1,
				"roughnessFactor" : 0.4
			}
		},
		{
			"alphaMode" : "OPAQUE",
			"doubleSided" : true,
			"name" : "BlocksGem",
			"pbrMetallicRoughness" : 
			{
				"baseColorFactor" : 
				[
					1,
					0.4,
					1,
					1
				],
				"metallicFactor" : 0,
				"roughnessFactor" : 0.1
			}
		}
	],
	"meshes" : 
	[
		{
			"name" : "mesh_m0-PolyPaper21_-41240",
			"primitives" : 
			[
				{
					"attributes" : 
					{
						"COLOR_0" : 0,
						"NORMAL" : 6,
						"POSITION" : 9
					},
					"indices" : 3,
					"material" : 0,
					"mode" : 4
				}
			]
		},
		{
			"name" : "mesh_m1-PolyGem25_-41246",
			"primitives" : 
			[
				{
					"attributes" : 
					{
						"COLOR_0" : 1,
						"NORMAL" : 7,
						"POSITION" : 10
					},
					"indices" : 4,
					"material" : 2,
					"mode" : 4
				}
			]
		},
		{
			"name" : "mesh_m2-PolyPaper19_-41252",
			"primitives" : 
			[
				{
					"attributes" : 
					{
						"COLOR_0" : 2,
						"NORMAL" : 8,
						"POSITION" : 11
					},
					"indices" : 5,
					"material" : 0,
					"mode" : 4
				}
			]
		}
	],
	"nodes" : 
	[
		{
			"matrix" : 
			[
				1,
				0,
				0,
				0,
				0,
				1,
				0,
				0,
				0,
				0,
				1,
				0,
				0,
				0,
				0,
				1
			],
			"mesh" : 2,
			"name" : "node_MeshObject-2001807360-PolyPaper19"
		},
		{
			"matrix" : 
			[
				1,
				0,
				0,
				0,
				0,
				1,
				0,
				0,
				0,
				0,
				1,
				0,
				0,
				0,
				0,
				1
			],
			"mesh" : 0,
			"name" : "node_MeshObject1149001728-PolyPaper21"
		},
		{
			"matrix" : 
			[
				1,
				0,
				0,
				0,
				0,
				1,
				0,
				0,
				0,
				0,
				1,
				0,
				0,
				0,
				0,
				1
			],
			"mesh" : 1,
			"name" : "node_MeshObject1721080832-PolyGem25"
		}
	],
	"scene" : 0,
	"scenes" : 
	[
		{
			"extras" : {},
			"name" : "defaultScene",
			"nodes" : 
			[
				1,
				2,
				0
			]
		}
	]
}