{
	"accessors" : 
	[
		{
			"bufferView" : 2,
			"byteOffset" : 0,
			"componentType" : 5126,
			"count" : 9792,
			"max" : 
			[
				0.006584956776350737,
				0.006584956776350737,
				0.006584956776350737,
				1
			],
			"min" : 
			[
				0.006584956776350737,
				0.006584956776350737,
				0.006584956776350737,
				1
			],
			"name" : "accessor_color_m0-PolyPaper23_-174046",
			"type" : "VEC4"
		},
		{
			"bufferView" : 2,
			"byteOffset" : 156672,
			"componentType" : 5126,
			"count" : 9380,
			"max" : 
			[
				1,
				1,
				1,
				1
			],
			"min" : 
			[
				0.006584956776350737,
				0.006584956776350737,
				0.006584956776350737,
				1
			],
			"name" : "accessor_color_m1-PolyPaper21_-181658",
			"type" : "VEC4"
		},
		{
			"bufferView" : 0,
			"byteOffset" : 0,
			"componentType" : 5123,
			"count" : 13824,
			"max" : 
			[
				9791
			],
			"min" : 
			[
				0
			],
			"name" : "accessor_indices_0_m0-PolyPaper23_-174046",
			"type" : "SCALAR"
		},
		{
			"bufferView" : 0,
			"byteOffset" : 27648,
			"componentType" : 5123,
			"count" : 12462,
			"max" : 
			[
				9379
			],
			"min" : 
			[
				0
			],
			"name" : "accessor_indices_0_m1-PolyPaper21_-181658",
			"type" : "SCALAR"
		},
		{
			"bufferView" : 1,
			"byteOffset" : 117504,
			"componentType" : 5126,
			"count" : 9792,
			"max" : 
			[
				0.9988486,
				0.9891219,
				0.9994271
			],
			"min" : 
			[
				-0.9988493000000001,
				-0.9891219,
				-0.9994272
			],
			"name" : "accessor_normal_m0-PolyPaper23_-174046",
			"type" : "VEC3"
		},
		{
			"bufferView" : 1,
			"byteOffset" : 347568,
			"componentType" : 5126,
			"count" : 9380,
			"max" : 
			[
				0.999974,
				0.9995432,
				0.9997239999999999
			],
			"min" : 
			[
				-0.9997369,
				-0.9994916,
				-0.9994807999999999
			],
			"name" : "accessor_normal_m1-PolyPaper21_-181658",
			"type" : "VEC3"
		},
		{
			"bufferView" : 1,
			"byteOffset" : 0,
			"componentType" : 5126,
			"count" : 9792,
			"max" : 
			[
				0.8938282,
				1.46725,
				-0.9676940000000001
			],
			"min" : 
			[
				0.0758191,
				1.391792,
				-1.455857
			],
			"name" : "accessor_position_m0-PolyPaper23_-174046",
			"type" : "VEC3"
		},
		{
			"bufferView" : 1,
			"byteOffset" : 235008,
			"componentType" : 5126,
			"count" : 9380,
			"max" : 
			[
				1.008855,
				1.685457,
				-0.7992718
			],
			"min" : 
			[
				-0.03064362,
				0.8841282,
				-1.543434
			],
			"name" : "accessor_position_m1-PolyPaper21_-181658",
			"type" : "VEC3"
		}
	],
	"asset" : 
	{
		"copyright" : "Unknown",
		"generator" : "glTF 1-to-2 Upgrader for Google Blocks",
		"version" : "2.0"
	},
	"bufferViews" : 
	[
		{
			"buffer" : 0,
			"byteLength" : 52572,
			"byteOffset" : 0,
			"name" : "ushortBufferView",
			"target" : 34963
		},
		{
			"buffer" : 0,
			"byteLength" : 460128,
			"byteOffset" : 52572,
			"byteStride" : 12,
			"name" : "vec3BufferView",
			"target" : 34962
		},
		{
			"buffer" : 0,
			"byteLength" : 306752,
			"byteOffset" : 512700,
			"byteStride" : 16,
			"name" : "vec4BufferView",
			"target" : 34962
		}
	],
	"buffers" : 
	[
		{
			"byteLength" : 819452,
			"name" : "Telephone",
			"uri" : "Telephone.bin"
		}
	],
	"materials" : 
	[
		{
			"alphaMode" : "OPAQUE",
			"doubleSided" : false,
			"name" : "BlocksPaper",
			"pbrMetallicRoughness" : 
			{
				"baseColorFactor" : 
				[
					1,
					1,
					1,
					1
				],
				"metallicFactor" : 0,
				"roughnessFactor" : 0.6
			}
		},
		{
			"alphaMode" : "BLEND",
			"doubleSided" : false,
			"name" : "BlocksGlass",
			"pbrMetallicRoughness" : 
			{
				"baseColorFactor" : 
				[
					0.2,
					0.2,
					1,
					0.3
				],
				"metallicFactor" : 1,
				"roughnessFactor" : 0.4
			}
		},
		{
			"alphaMode" : "OPAQUE",
			"doubleSided" : true,
			"name" : "BlocksGem",
			"pbrMetallicRoughness" : 
			{
				"baseColorFactor" : 
				[
					1,
					0.4,
					1,
					1
				],
				"metallicFactor" : 0,
				"roughnessFactor" : 0.1
			}
		}
	],
	"meshes" : 
	[
		{
			"name" : "mesh_m0-PolyPaper23_-174046",
			"primitives" : 
			[
				{
					"attributes" : 
					{
						"COLOR_0" : 0,
						"NORMAL" : 4,
						"POSITION" : 6
					},
					"indices" : 2,
					"material" : 0,
					"mode" : 4
				}
			]
		},
		{
			"name" : "mesh_m1-PolyPaper21_-181658",
			"primitives" : 
			[
				{
					"attributes" : 
					{
						"COLOR_0" : 1,
						"NORMAL" : 5,
						"POSITION" : 7
					},
					"indices" : 3,
					"material" : 0,
					"mode" : 4
				}
			]
		}
	],
	"nodes" : 
	[
		{
			"matrix" : 
			[
				1,
				0,
				0,
				0,
				0,
				1,
				0,
				0,
				0,
				0,
				1,
				0,
				0,
				0,
				0,
				1
			],
			"mesh" : 0,
			"name" : "node_MeshObject-1496886912-PolyPaper23"
		},
		{
			"matrix" : 
			[
				1,
				0,
				0,
				0,
				0,
				1,
				0,
				0,
				0,
				0,
				1,
				0,
				0,
				0,
				0,
				1
			],
			"mesh" : 1,
			"name" : "node_MeshObject-1528366464-PolyPaper21"
		}
	],
	"scene" : 0,
	"scenes" : 
	[
		{
			"extras" : {},
			"name" : "defaultScene",
			"nodes" : 
			[
				0,
				1
			]
		}
	]
}